<?xml version="1.0" encoding="utf-8"?>
<!-- Generator: Adobe Illustrator 24.3.0, SVG Export Plug-In . SVG Version: 6.00 Build 0)  -->
<svg version="1.1" id="Capa_1" xmlns="http://www.w3.org/2000/svg" xmlns:xlink="http://www.w3.org/1999/xlink" x="0px" y="0px"
	 viewBox="0 0 585 334" style="enable-background:new 0 0 585 334;" xml:space="preserve">
<style type="text/css">
	.st0{fill:#6AA733;}
</style>
<g>
	<path class="st0" d="M447,308.8c-5.8-1.6-5.6-5.9-0.5-7.8c4.5-0.4,9.1-0.2,13.7-0.2c7.8,0,15.6,0,23.4,0c6-1.1,8.4,4.8,3,8
		C473.5,308.8,460.3,308.8,447,308.8z"/>
	<path class="st0" d="M514.1,308.8c-14.3-9.9,18.6-11.8,5.8,0C518,308.8,516,308.8,514.1,308.8z"/>
	<path class="st0" d="M214.3,246.3c-2.7,1.4-6.9-1.3-6.9,3.1c-0.9,10.5-1.8,21-2.8,31.5c-0.3,2.7,0.8,3.6,3.4,3.6
		c53.7-0.1,107.4,0,161.2,0c2.4,0,3.4-0.7,3.2-3.3c-1.5-15.9-2.9-31.8-4.3-47.7c-2.4-27.6-4.8-55.2-7.4-82.8
		c-1.8-9.7-21.5,3.1-22.3-9.9c-6.1-63.5-96.8-59.5-99.9,1.6c-0.3,3-1.8,4.6-4.9,4.6c-5.5,0.9-16.1-3-17.4,4.6
		c-0.9,12.4-2.6,24.8-2.9,37.2c2.2,0.5,4.1,1,7,1.7c-8,2.8-10.1,0-9.6-5.2c1.1-10.9,2-21.7,2.9-32.6c0.7-16.1,22.7-1.2,22.9-12.9
		c4.9-60.2,93.4-64.3,103.6-4.5c1.9,9.2,1.6,9.3,11.2,9.3c10.8,0,10.9,0,12,10.6c3.5,38.1,6.9,76.2,10.6,114.3
		c-0.6,5.2,4.5,16.9-3.4,17.5c-53.8,0-107.7,0-161.5,0c-6.2,0-7-1-6.4-7.2c0.9-9.4,1.6-18.9,2.4-28.3c0.2-7.6,2.1-8.3,9.1-6.4
		C214.1,245.5,214.2,245.9,214.3,246.3z"/>
	<path class="st0" d="M458.2,239.4c-14.1,0-28.1-0.1-42.2,0.1c-8.6-0.4-6.2-10.3,1.1-9.6c27.5-0.2,55.1-0.2,82.6,0
		c7.2-0.2,9.4,9.3,0.7,9.6C486.3,239.5,472.2,239.4,458.2,239.4C458.2,239.4,458.2,239.4,458.2,239.4z"/>
	<path class="st0" d="M120.3,228.8c13.8,0,27.6,0,41.4,0c4.8,0,6.1,1.1,6.1,4.9c0.1,7.3-13.2,3.8-18.1,4.9c-22.7,0.1-45.4,0-68.1,0
		c-4.3,0.1-9.8-0.7-8.8-5.9c0.2-3.8,3-3.9,5.7-3.9C92.4,228.7,106.4,228.7,120.3,228.8C120.3,228.7,120.3,228.7,120.3,228.8z"/>
	<path class="st0" d="M288.4,147c-11.4,0-22.8,0-34.2,0c-6.3,0-8.4-3.1-6.1-9c12.9-34.8,66.9-35.7,80.9-0.7c3,6.2-0.4,10.1-6.3,9.9
		C311.2,146.7,299.8,147,288.4,147z M288.4,144.6c11.4,0,22.8,0,34.3,0c4.8,0,5.9-1.8,4-6.3c-13.2-33-63.8-32.5-76.4,0.5
		c-1.7,4.2-0.7,5.8,3.9,5.8C265.5,144.6,277,144.6,288.4,144.6z"/>
	<path class="st0" d="M404.7,271.8c-5.6-1-23,2.9-24.3-3.4c-0.8-2.6,0.9-4.9,4-5c11.9-0.2,23.8-0.3,35.6-0.4
		c11.7-1.3,12.4,8.4,4.1,8.8C417.7,271.8,411.2,271.8,404.7,271.8z"/>
	<path class="st0" d="M173.7,270.4c-6.5,0-13,0-19.5,0c-2.9,0-4.9-0.8-4.9-4.2c0-3.4,2-4.4,4.9-4.4c12.9,0,25.7,0,38.6,0
		c2.7,0,5.5,0.4,5.4,4.2C198.8,273.7,179.1,269.3,173.7,270.4z"/>
	<path class="st0" d="M112.6,299.6c4.7,0.9,24.5-2.9,23.3,3.8c0,3.3-2.4,3.7-5,3.7c-12.4,0-24.7,0-37.1,0.1c-2.7,0-5-0.7-5-3.9
		c0-3.2,2.4-3.7,5-3.7C100.1,299.6,106.3,299.6,112.6,299.6z"/>
	<path class="st0" d="M292.8,241.9c5.9,0.4,23.1,4.5,19.3,12.5c-4.4,6.9-12.6-9.3-28.5-1.6c-2.4,1-4.8,1-6-1.9
		C275.3,243,288.2,244,292.8,241.9z"/>
	<path class="st0" d="M75.3,279.1c-14.9,0.2-14.4-23.1,0.3-22.7C90.4,256.7,90.5,279.3,75.3,279.1z M75.4,258.8
		c-11.8,0.2-11.7,17.9,0.1,18C87.2,276.7,87.2,258.9,75.4,258.8z"/>
	<path class="st0" d="M124.3,111c3.9,0.4,7.3,0.7,10.7,1.1c0.1,0,0,1.3,0,2.3c-3.4,0-6.7,0-10.7,0c-0.3,4,1.3,8-1.7,10.9
		c-2.3-3.2-1-6.7-1.3-10.8c-4-0.4-7.8,1.2-10.8-1.5c2.8-3,6.8-1.2,10.8-1.6c0.2-4.1-1-7.6,1.6-10.9
		C125.1,103.7,124.2,107.2,124.3,111z"/>
	<path class="st0" d="M109.5,170.2c-0.2,15.1-23.4,13.8-22.9-0.7C87.6,154.5,109.8,155,109.5,170.2z M98.4,179
		c11.9-1,11.7-17.8-0.3-18.3C86.2,161.4,86.7,178.8,98.4,179z"/>
	<path class="st0" d="M431.4,152.8c-3.2-3.9,4.6-10.4-0.5-12.3c-2.9-1-6.2-1.2-7.7-4.2c0.3-0.3,0.6-0.6,0.8-0.9
		c17.2,6,6.5-0.1,15.3-7.3c0.3,0.3,0.6,0.6,1,0.9c-5.8,16.8-2.1,6.7,6.5,15.3c-12.2,1-9-7.8-14.2,8.3
		C432.1,152.7,431.7,152.7,431.4,152.8z"/>
	<path class="st0" d="M205,50.8c-3.2-17.5-1.5-7.1-13-10.1c1.7-2.8,4.9-2.5,7.7-3c5.7-1.3-1.7-8.9,2.1-12.3c0.4,0.1,0.7,0.2,1.1,0.3
		c1.7,3.4-0.1,12.2,5.7,10.3c2.4-0.4,5.2-1.9,7.4-0.3c-1,3-4.6,2.4-7.1,3.1c-6.8,0.9,1.3,9-2.8,12.3C205.7,51,205.3,50.9,205,50.8z"
		/>
	<path class="st0" d="M205.1,218.6c1.1-5.5,1.3-12.8,8.4-12.6c9.7,0.4,9.4,14.2,6.8,21c-1.9,5.6-11.1,6-13.1,0.4
		C206.1,224.4,205.7,221.3,205.1,218.6z M219.7,218.6c-0.8-4.1-0.2-11.2-6.2-11c-2.7,0-4.6,1.6-4.8,3.9c-0.4,4.7-0.4,9.4-0.1,14.1
		c0.2,2.3,2,4,4.7,4.1C219.5,229.9,218.8,223,219.7,218.6z"/>
	<path class="st0" d="M161,121.3c8.7,0,16.7,0,25,0c-3.5,7.3-7,14.7-10.9,22.9C170.3,136.3,165.9,129.2,161,121.3z M174.9,140.6
		c3-6.3,5.6-11.9,8.2-17.5c-6.5,0-12.3,0-18.9,0C168,129.3,171.2,134.6,174.9,140.6z"/>
	<path class="st0" d="M449.7,271.7c-3.5,0.9-6.4-0.8-7.4-4.2c-1.2-5.7,7.6-4.3,11.1-4.5c7.1,0.8,5.8,10.4-3.7,8.7
		C449.7,271.7,449.7,271.7,449.7,271.7z"/>
	<path class="st0" d="M326.8,73c0-8.7,0-16.8,0-25.7c7.5,5,14.5,9.7,22.1,14.7C341.3,65.8,334.3,69.3,326.8,73z M328.4,70.3
		c5.8-2.9,11.1-5.5,17.1-8.5c-5.9-3.9-11.1-7.4-17.1-11.4C328.4,57.3,328.4,63.4,328.4,70.3z"/>
	<path class="st0" d="M128.7,270.7c-10.6,1.1-9.5-8.4-4-8.6c2.6,0,5.2,0,7.9,0c5.3-0.2,5.1,8.6-0.1,8.4
		C131.2,270.4,129.9,270.6,128.7,270.7z"/>
	<path class="st0" d="M19.2,238.6c-9.8,1.8-10.6-7.2-4.6-7.5c3,0,5.9-0.1,8.9-0.1C29.1,231.2,28.9,240.3,19.2,238.6
		C19.2,238.6,19.2,238.6,19.2,238.6z"/>
	<path class="st0" d="M559.3,231.8c3.1,0.6,8.9-0.4,8.3,4.5c-0.1,2.5-1.4,3.3-3.7,3.4c-4-0.5-11.1,2.8-12.1-3
		C551,231.7,555.8,232,559.3,231.8z"/>
	<path class="st0" d="M252.9,78.5c-9.3,0.3-9.5-15.3,0.2-14.8C262.6,63.3,262.5,79,252.9,78.5z M253.1,66.1c-6.7,0-6.6,9.8,0,9.9
		C259.5,76,259.7,66.1,253.1,66.1z"/>
	<path class="st0" d="M369.2,67c-9.7,0.5-9.5-15.1,0-14.8C378.8,52.4,379.4,66.9,369.2,67z M374.3,59.8c0-6.5-10-6.6-10.2-0.2
		C364,66,374.3,66.2,374.3,59.8z"/>
	<path class="st0" d="M529.7,229.6c7.3,0,6.6,10.7-0.9,9.9C522.3,239.6,522.7,228.7,529.7,229.6z"/>
	<path class="st0" d="M49.4,228.6c7.1-0.6,6.2,10.4-0.1,9.9C42.4,238.8,41.8,227.8,49.4,228.6z"/>
	<path class="st0" d="M61.5,299.5c3.3-0.2,7,0.6,6.1,4.5c-0.6,3.7-3.6,3.2-6.1,3.2c-2.6,0-5.5,0.4-6.1-3.3
		C54.5,300,58.7,299.3,61.5,299.5z"/>
	<path class="st0" d="M265.2,219.3c6.3-0.4,6.4,8.7,0.4,8.6C259.8,228.4,259.8,219,265.2,219.3z"/>
	<path class="st0" d="M318.8,227.9c-5.9,0.5-5.6-9.2,0.2-8.6C324.7,219,324.5,228.3,318.8,227.9z"/>
	<path class="st0" d="M186.8,225.6c1.2,2.2,4,4,2,7.8C187.1,230.6,184.7,228.7,186.8,225.6z"/>
	<path class="st0" d="M240.8,210.3c-3.9-0.9-3.8-3.6-4.7-5.6c-0.1-0.2,0.5-1.1,0.7-1.1C239.9,204.1,239.3,207.4,240.8,210.3z"/>
	<path class="st0" d="M225.3,194.1c3.9-1.2,6.3,0.4,7.3,4.9C229.9,197.2,227.9,195.9,225.3,194.1z"/>
	<path class="st0" d="M228.2,241.1c-1.5,3.4-3.8,4.2-7.5,4.2C222.6,242,225.1,241.7,228.2,241.1z"/>
	<path class="st0" d="M232.6,236.3c1.5-1.4,2.4-5.4,4.7-5c1.5,2.3-2.2,4.2-3.2,6.2C233.7,237.1,233.2,236.7,232.6,236.3z"/>
	<path class="st0" d="M191.8,198.3c1.6,2.7-1.4,7.3-3.6,6.2C187.4,202.2,190.8,200.3,191.8,198.3z"/>
	<path class="st0" d="M239.4,224.5c0.1-2.3,0.3-4.7,0.4-7c3.3,2.3,1.7,4.6,1.2,6.9C240.5,224.5,239.9,224.5,239.4,224.5z"/>
	<path class="st0" d="M205.1,192.1c-2,0.9-4,1.9-6,2.8c-2.9-2.3,3.7-3.4,5.1-4.2C204.5,191.2,204.8,191.7,205.1,192.1z"/>
	<path class="st0" d="M184.7,218.2c-1.2-2.3-0.7-4.5,0.9-6.5c0.4,0,0.8,0.1,1.1,0.1c-0.1,2.2-0.3,4.3-0.4,6.5
		C185.7,218.3,185.2,218.2,184.7,218.2z"/>
	<path class="st0" d="M194.5,237.3c2.1,1.7,4,3.1,6.2,4.9C196.9,242.8,194.6,240.9,194.5,237.3z"/>
</g>
</svg>
