<?xml version="1.0" encoding="utf-8"?>
<!-- Generator: Adobe Illustrator 24.3.0, SVG Export Plug-In . SVG Version: 6.00 Build 0)  -->
<svg version="1.1" id="Capa_1" xmlns="http://www.w3.org/2000/svg" xmlns:xlink="http://www.w3.org/1999/xlink" x="0px" y="0px"
	 viewBox="0 0 81 20.8" style="enable-background:new 0 0 81 20.8;" xml:space="preserve">
<style type="text/css">
	.st0{fill:#6AA733;}
</style>
<g>
	<path class="st0" d="M11.2,17.6c0.1,0.2,0.1,0.3,0.2,0.4c0.1,0.1,0.1,0.1,0.1,0.2s0,0.1-0.1,0.2s-0.2,0.1-0.3,0.1
		c-0.2,0-0.5-0.1-0.6-0.2c-0.2-0.1-0.2-0.3-0.2-0.6c0-1.4,0-2.6,0-3.5v-1.5c0-1,0.1-1.8,0.1-2.3C9.2,12.8,8.1,14.7,7,16
		c-1.1,1.3-2.3,1.9-3.6,1.9c-1,0-1.7-0.3-2.2-0.9s-0.7-1.5-0.7-2.8c0-1.7,0.4-3.4,1.2-5s1.8-3,3-4s2.4-1.5,3.7-1.5
		c0.4,0,0.7,0.1,0.8,0.4c0.1,0.2,0.2,0.5,0.2,0.8s0,0.5-0.1,0.7s-0.1,0-0.2,0c0,0,0,0-0.1-0.1c0-0.1,0-0.3-0.1-0.6
		c0-0.2-0.1-0.4-0.2-0.5c0-0.1-0.2-0.2-0.4-0.2c-1,0-2.1,0.5-3.2,1.5S3.2,8,2.4,9.6c-0.7,1.5-1.1,3-1.1,4.5c0,0.9,0.2,1.7,0.5,2.2
		C2.1,16.8,2.7,17,3.5,17c0.9,0,1.7-0.3,2.4-1c0.8-0.7,1.4-1.5,2-2.5s1.3-2.3,2.1-4c-0.6,0.1-1.4,0.3-2.4,0.7L7,10.4l-0.6,0.2
		c-0.4,0.1-0.8,0.3-1,0.3C5.1,11,4.9,11,4.7,11c-0.1,0-0.2-0.1-0.3-0.2c-0.1-0.1-0.1-0.2-0.1-0.3c0-0.2,0.2-0.3,0.7-0.5
		s1.1-0.3,2.1-0.5C7.5,9.4,8,9.3,8.6,9.1c0.1,0,0.5-0.1,1-0.3c0.6-0.1,1-0.2,1.2-0.2c0,0,0.1,0,0.2,0s0.2,0,0.2,0.1s0.1,0.2,0.1,0.4
		c0,0.1-0.1,0.2-0.2,0.3v1.3c0,0.9-0.1,1.8-0.1,2.9V16v0.9C11.1,17.2,11.1,17.5,11.2,17.6z"/>
	<path class="st0" d="M18.1,8.5c-0.1,0.1-0.3,0.2-0.4,0.2s-0.2,0-0.2-0.1c-0.1-0.1-0.2-0.2-0.2-0.3C17.2,8.2,17.1,8.1,17,8
		c-0.1-0.1-0.3-0.1-0.4-0.1c-0.3,0-0.8,0.4-1.3,1.3s-1.1,1.9-1.6,3.2c0,0.3,0,0.6,0.1,1c0,0.4,0,0.7,0.1,0.9L14,15
		c0,0.2,0,0.3-0.1,0.4s-0.2,0.2-0.4,0.2s-0.3-0.3-0.4-0.8C13,14.3,13,13.5,13,12.6c0-0.2,0-0.6,0-1.1s0-1,0-1.6c0-1-0.1-1.7-0.1-2.1
		c0-0.3,0.2-0.4,0.5-0.4c0.2,0,0.3,0.1,0.3,0.2c0,0.2,0.1,0.5,0.1,0.9v2.7c0.3-0.9,0.7-1.6,1.1-2.2c0.4-0.6,0.8-1.1,1.1-1.4
		c0.3-0.3,0.7-0.5,1-0.5c0.2,0,0.5,0.1,0.7,0.2s0.4,0.3,0.5,0.4c0.1,0.2,0.2,0.3,0.2,0.5C18.3,8.3,18.2,8.4,18.1,8.5z"/>
	<path class="st0" d="M25.4,11.2c0,0.2-0.1,0.6-0.4,1.3s-0.7,1.3-1.3,1.9s-1.3,0.9-2.2,0.9c-0.7,0-1.3-0.2-1.8-0.7
		c-0.5-0.4-0.7-1.1-0.7-2.1c0-0.9,0.2-1.7,0.6-2.6C20,9,20.5,8.3,21.2,7.8s1.3-0.8,2-0.8c0.4,0,0.8,0.1,1,0.3
		c0.3,0.2,0.4,0.5,0.4,0.8c0,0.4-0.2,0.8-0.7,1.1c-0.4,0.4-1,0.7-1.7,1s-1.4,0.5-2.2,0.6c-0.1,0.5-0.2,1-0.2,1.5
		c0,0.6,0.2,1.2,0.5,1.5c0.3,0.4,0.7,0.5,1.3,0.5c0.9,0,1.6-0.3,2.1-0.9c0.5-0.6,1-1.3,1.3-2.1c0,0,0.1-0.1,0.1-0.3
		c0.1-0.1,0.1-0.2,0.2-0.2C25.4,11,25.4,11.1,25.4,11.2z M23.5,7.9c-0.2-0.1-0.4-0.2-0.6-0.2c-0.4,0-0.8,0.1-1.2,0.4
		c-0.4,0.3-0.7,0.6-1,1s-0.4,0.7-0.5,1c0.5-0.1,1.1-0.2,1.6-0.4c0.6-0.2,1-0.5,1.4-0.8s0.6-0.5,0.6-0.7C23.8,8.2,23.7,8,23.5,7.9z"
		/>
	<path class="st0" d="M32.7,11.2c0,0.2-0.1,0.6-0.4,1.3c-0.3,0.7-0.7,1.3-1.3,1.9s-1.3,0.9-2.2,0.9c-0.7,0-1.3-0.2-1.8-0.7
		c-0.5-0.4-0.7-1.1-0.7-2.1c0-0.9,0.2-1.7,0.6-2.6c0.4-0.9,0.9-1.6,1.6-2.1s1.3-0.8,2-0.8c0.4,0,0.8,0.1,1,0.3
		c0.3,0.2,0.4,0.5,0.4,0.8c0,0.4-0.2,0.8-0.7,1.1c-0.4,0.4-1,0.7-1.7,1s-1.4,0.5-2.2,0.6c-0.1,0.5-0.2,1-0.2,1.5
		c0,0.6,0.2,1.2,0.5,1.5c0.3,0.4,0.7,0.5,1.3,0.5c0.9,0,1.6-0.3,2.1-0.9c0.5-0.6,1-1.3,1.3-2.1c0,0,0.1-0.1,0.1-0.3
		c0.1-0.1,0.1-0.2,0.2-0.2C32.6,11,32.7,11.1,32.7,11.2z M30.8,7.9c-0.2-0.1-0.4-0.2-0.6-0.2c-0.4,0-0.8,0.1-1.2,0.4
		c-0.4,0.3-0.7,0.6-1,1s-0.4,0.7-0.5,1c0.5-0.1,1.1-0.2,1.6-0.4c0.6-0.2,1-0.5,1.4-0.8s0.6-0.5,0.6-0.7C31.1,8.2,31,8,30.8,7.9z"/>
	<path class="st0" d="M39.1,15.7c-0.1,0.1-0.2,0.1-0.4,0.1c-0.1,0-0.2,0-0.3-0.1s-0.1-0.1-0.1-0.2c0-0.5,0-1.2,0.1-2.1
		c0.1-1,0.1-1.9,0.1-2.6c0-0.7,0-1.2-0.1-1.6c0-0.4-0.1-0.6-0.3-0.6c-0.4,0-0.8,0.5-1.3,1.4s-1,2.2-1.6,3.7l-0.3,0.7
		c0,0.1-0.1,0.2-0.2,0.3c-0.1,0.1-0.2,0.1-0.3,0.1s-0.2,0-0.3,0c0,0-0.1-0.1-0.1-0.2l0-1.4l-0.3-2.4c-0.1-1-0.2-1.8-0.3-2.5
		c0-0.2-0.1-0.3-0.1-0.4c0-0.2,0.1-0.3,0.2-0.4c0.1-0.1,0.3-0.2,0.5-0.2c0.1,0,0.2,0.3,0.2,0.8s0.1,1.4,0.2,2.6l0.1,0.9
		c0.1,1.1,0.1,1.8,0.2,2.1c0-0.1,0.1-0.1,0.1-0.2c0-0.1,0.1-0.2,0.1-0.3c0.6-1.6,1.2-2.9,1.7-3.9s1-1.6,1.5-1.6
		c0.3,0,0.6,0.3,0.7,0.9c0.1,0.6,0.2,1.3,0.2,2.3s0.1,2.5,0.1,4.5C39.2,15.5,39.2,15.6,39.1,15.7z"/>
	<path class="st0" d="M52.1,14c-0.4,0.5-0.9,1-1.6,1.3c-0.7,0.3-1.4,0.5-2.3,0.5c-0.7,0-1.3-0.1-1.7-0.2c-0.4-0.1-0.6-0.3-0.6-0.5
		c0-0.1,0.1-0.3,0.2-0.6c0.2-0.3,0.3-0.4,0.4-0.4c0.1,0,0.2,0,0.2,0.1c0,0,0,0.1-0.1,0.1l-0.1,0.1c0,0,0.1,0.1,0.2,0.2
		c0.1,0.1,0.4,0.1,0.6,0.2s0.6,0.1,1.1,0.1c0.7,0,1.2-0.1,1.7-0.4s0.9-0.6,1.2-1s0.4-0.8,0.4-1.1c0-0.5-0.2-0.9-0.7-1.2
		s-1.2-0.7-2.2-1S47,9.6,46.5,9.4s-1-0.5-1.3-0.8s-0.5-0.7-0.5-1.2c0-0.6,0.3-1.2,1-1.8s1.5-1.1,2.6-1.5c1-0.4,2-0.6,2.8-0.6
		c0.4,0,0.7,0.1,0.7,0.3s0.1,0.4,0.1,0.6c0,0.2-0.1,0.3-0.2,0.3c-0.1,0-0.1,0-0.2-0.1c-0.1,0-0.1-0.1-0.2-0.1c-0.1,0-0.1,0-0.2-0.1
		s-0.2,0-0.4,0c-0.6,0-1.3,0.2-2.1,0.5S47.1,5.6,46.5,6s-0.9,0.9-0.9,1.3c0,0.3,0.1,0.6,0.4,0.9c0.3,0.3,0.6,0.5,1.1,0.6
		C47.6,9,48.2,9.2,49,9.4c1.2,0.4,2.1,0.8,2.7,1.2c0.6,0.4,0.9,1,0.9,1.6C52.7,12.9,52.5,13.4,52.1,14z"/>
	<path class="st0" d="M60.9,8.7C60.7,8.8,60.4,8.9,60,9c-1,0.2-1.6,0.3-1.7,0.3l-1.1,0.2c0,0.6,0,1.2,0,1.8s0,1.2,0.1,1.7
		c0,0.6,0.1,1.1,0.2,1.5c0.1,0.3,0.2,0.5,0.2,0.6s-0.1,0.2-0.2,0.3c-0.1,0.1-0.3,0.1-0.4,0.1c-0.1,0-0.1,0-0.2-0.1
		c0,0-0.1-0.1-0.1-0.2c-0.1-0.2-0.1-0.4-0.2-0.9s-0.1-0.9-0.1-1.4s-0.1-1-0.1-1.6s0-1.2,0-1.8c-0.6,0.1-1.3,0.2-1.9,0.4
		c-0.6,0.1-0.9,0.2-1.1,0.2c-0.1,0-0.3,0-0.4-0.1c-0.1-0.1-0.2-0.2-0.2-0.3s0.1-0.2,0.2-0.3c0.1,0,0.3-0.1,0.5-0.1s0.4,0,0.7-0.1
		s0.5-0.1,0.6-0.1c0.8-0.1,1.3-0.2,1.5-0.3c0-0.2,0-0.5,0-0.9c0-0.5,0-0.9,0-1.2c0-0.4,0-0.8,0-1s0.1-0.5,0.2-0.6
		c0.1-0.2,0.3-0.3,0.5-0.3c0.1,0,0.2,0,0.2,0.1c0,0,0.1,0.1,0.1,0.2s0,0.3-0.1,0.6C57.1,6,57.1,6.5,57.1,7c0,0.4,0,0.9,0,1.4v0.5
		c0.5-0.1,1.5-0.3,3-0.6c0.1,0,0.2-0.1,0.2-0.2s0.1-0.2,0.2-0.2c0.1,0,0.2,0.1,0.4,0.2c0.1,0.1,0.2,0.3,0.2,0.4
		C61.1,8.5,61,8.6,60.9,8.7z"/>
	<path class="st0" d="M66.8,13.3c-0.3,0.6-0.8,1.1-1.4,1.5s-1.3,0.6-2,0.6c-0.8,0-1.3-0.2-1.7-0.6c-0.4-0.4-0.5-0.9-0.5-1.5
		c0-0.5,0.1-1.2,0.3-2s0.5-1.5,0.8-2.1c0,0,0.1-0.2,0.3-0.5s0.3-0.5,0.5-0.7s0.4-0.2,0.6-0.2c0.1,0,0.2,0,0.3,0.1
		C64.1,8,64.1,8,64.1,8.1c0,0,0,0.1-0.1,0.2s0,0-0.1,0c-0.4,0.5-0.7,0.9-0.9,1.4c-0.3,0.6-0.6,1.1-0.7,1.7C62.1,12,62,12.6,62,13.2
		c0,0.9,0.5,1.3,1.6,1.3c0.5,0,1-0.1,1.4-0.4s0.8-0.6,1-1.1c0.3-0.4,0.4-0.8,0.4-1.1c0-0.4-0.1-0.7-0.4-1s-0.6-0.6-1.1-0.9
		c-0.3-0.2-0.5-0.4-0.6-0.5s-0.2-0.2-0.2-0.3s0.1-0.2,0.3-0.3c0.2-0.1,0.4-0.1,0.7-0.1c0.1,0,0.2,0,0.3,0c0,0,0.1,0,0.1,0.1
		c0,0,0,0.1-0.1,0.1c0,0.1-0.1,0.1-0.1,0.1s0.1,0.1,0.3,0.3c0.4,0.4,0.8,0.7,1.1,1.1c0.3,0.4,0.5,0.8,0.5,1.3
		C67.3,12.2,67.1,12.7,66.8,13.3z"/>
	<path class="st0" d="M73.7,8.5c-0.1,0.1-0.3,0.2-0.4,0.2s-0.2,0-0.2-0.1c-0.1-0.1-0.2-0.2-0.2-0.3c-0.1-0.1-0.2-0.2-0.3-0.3
		c-0.1-0.1-0.3-0.1-0.4-0.1c-0.3,0-0.8,0.4-1.3,1.3s-1.1,1.9-1.6,3.2c0,0.3,0,0.6,0.1,1c0,0.4,0,0.7,0.1,0.9V15c0,0.2,0,0.3-0.1,0.4
		s-0.2,0.2-0.4,0.2c-0.2,0-0.3-0.3-0.4-0.8s-0.1-1.3-0.1-2.2c0-0.2,0-0.6,0-1.1s0-1,0-1.6c0-1-0.1-1.7-0.1-2.1
		c0-0.3,0.2-0.4,0.5-0.4c0.2,0,0.3,0.1,0.3,0.2s0.1,0.5,0.1,0.9v2.7c0.3-0.9,0.7-1.6,1.1-2.2c0.4-0.6,0.8-1.1,1.2-1.4s0.7-0.5,1-0.5
		c0.2,0,0.5,0.1,0.7,0.2s0.4,0.3,0.5,0.4C73.9,7.9,74,8,74,8.2C73.9,8.3,73.8,8.4,73.7,8.5z"/>
	<path class="st0" d="M81,11.2c0,0.2-0.1,0.6-0.4,1.3s-0.7,1.3-1.3,1.9c-0.6,0.6-1.3,0.9-2.2,0.9c-0.7,0-1.3-0.2-1.8-0.7
		c-0.5-0.4-0.7-1.1-0.7-2.1c0-0.9,0.2-1.7,0.6-2.6c0.4-0.9,0.9-1.6,1.6-2.1s1.3-0.8,2-0.8c0.4,0,0.8,0.1,1,0.3
		c0.3,0.2,0.4,0.5,0.4,0.8c0,0.4-0.2,0.8-0.7,1.1s-1,0.7-1.7,1s-1.4,0.5-2.2,0.6c-0.1,0.5-0.2,1-0.2,1.5c0,0.6,0.2,1.2,0.5,1.5
		c0.3,0.4,0.7,0.5,1.3,0.5c0.9,0,1.6-0.3,2.1-0.9c0.5-0.6,1-1.3,1.3-2.1c0,0,0.1-0.1,0.1-0.3c0.1-0.1,0.1-0.2,0.2-0.2
		C81,11,81,11.1,81,11.2z M79.1,7.9c-0.2-0.1-0.4-0.2-0.6-0.2c-0.4,0-0.8,0.1-1.2,0.4c-0.4,0.3-0.7,0.6-1,1s-0.4,0.7-0.5,1
		c0.5-0.1,1.1-0.2,1.6-0.4c0.6-0.2,1-0.5,1.4-0.8s0.6-0.5,0.6-0.7C79.4,8.2,79.3,8,79.1,7.9z"/>
</g>
</svg>
